Coordinates
version=1
nRows=15
nColumns=42
inDegrees=yes

Units are S.I. units (second, meters, Newtons, ...)
If the header above contains a line with 'inDegrees', this indicates whether rotational values are in degrees (yes) or radians (no).

endheader
time	pelvis_tilt	pelvis_list	pelvis_rotation	pelvis_tx	pelvis_ty	pelvis_tz	hip_flexion_r	hip_adduction_r	hip_rotation_r	knee_angle_r	knee_adduction_r	knee_angle_r_beta	ankle_angle_r	subtalar_angle_r	mtp_angle_r	hip_flexion_l	hip_adduction_l	hip_rotation_l	knee_angle_l	knee_adduction_l	knee_angle_l_beta	ankle_angle_l	subtalar_angle_l	mtp_angle_l	lumbar_extension	lumbar_bending	lumbar_rotation	arm_flex_r	arm_add_r	arm_rot_r	elbow_flex_r	pro_sup_r	wrist_flex_r	wrist_dev_r	arm_flex_l	arm_add_l	arm_rot_l	elbow_flex_l	pro_sup_l	wrist_flex_l	wrist_dev_l
      1.65000000	     14.29361150	      3.15905546	      6.78414052	     -0.40711880	      0.87972844	     -0.03311738	     13.35377416	     -3.37542937	    -21.78370838	     35.34140945	     -4.10030602	      0.61682396	     13.06204909	     -2.44224438	     -7.56588323	    -21.49224322	     -2.53390505	    -20.92491970	     43.32627898	    -10.58489230	      0.75618622	      8.50755038	     23.99814579	     -7.56588323	    -35.18583324	     -0.41896358	     -5.41841072	     -4.64519495	     -5.96280956	    -42.25899533	     23.93269594	     90.00000001	      0.00000000	      0.00000000	     10.80761996	     -7.07334613	    -29.55755587	     38.01434108	     90.00000001	      0.00000000	      0.00000000
      1.66000000	     14.66615540	      3.16678366	      6.42784200	     -0.39752903	      0.88120885	     -0.03138865	     12.35357145	     -3.10445228	    -21.87747439	     35.48794553	     -4.28404098	      0.61938149	     13.59004996	     -2.33606586	     -7.56549592	    -21.15279599	     -2.35980622	    -20.82834108	     45.06831535	    -11.18530252	      0.78659049	      7.90294230	     23.08374950	     -7.56549592	    -35.56737712	     -0.51624768	     -5.07570084	     -4.19509513	     -6.16019745	    -42.12102115	     24.15282577	     90.00000001	      0.00000000	      0.00000000	     10.37853560	     -6.92924528	    -29.67492529	     37.84029887	     90.00000001	      0.00000000	      0.00000000
      1.67000000	     14.62283703	      2.76546763	      6.29642461	     -0.38825805	      0.88202349	     -0.02961140	     11.81995417	     -2.36582329	    -22.81108253	     35.35382642	     -4.94160954	      0.61704067	     14.68670326	     -0.84876638	     -7.56237563	    -20.10628660	     -2.73305580	    -19.59037447	     47.37153273	    -10.81389370	      0.82678922	      6.27702392	     17.94848768	     -7.56237563	    -35.49469401	     -0.18406823	     -4.74085783	     -3.86885903	     -6.40824573	    -41.05161991	     24.59099806	     90.00000001	      0.00000000	      0.00000000	      9.90731822	     -6.66553586	    -30.18193208	     37.58255339	     90.00000001	      0.00000000	      0.00000000
      1.68000000	     14.85199857	      2.70386682	      6.13211221	     -0.37913155	      0.88338697	     -0.02814127	     10.91618722	     -2.12543007	    -23.69709493	     35.27609671	     -5.36171876	      0.61568403	     15.69662390	      0.50365885	     -7.55944531	    -19.37872419	     -2.61740732	    -18.59688636	     49.32323001	    -10.78055239	      0.86085276	      5.49813573	     14.33078403	     -7.55944531	    -35.76782230	     -0.14216619	     -4.55894022	     -3.46686655	     -6.62374852	    -40.04534582	     25.06232324	     90.00000001	      0.00000000	      0.00000000	      9.51128719	     -6.47959055	    -30.55528176	     37.35427226	     90.00000001	      0.00000000	      0.00000000
      1.69000000	     15.16441863	      2.78521191	      5.83712057	     -0.37020178	      0.88489627	     -0.02659956	      9.87517443	     -2.04173699	    -23.95579249	     35.19639426	     -5.44983581	      0.61429296	     16.26821779	      0.76167323	     -7.55856046	    -18.65647221	     -2.34427170	    -18.56716756	     51.08364886	    -11.30997095	      0.89157787	      5.68313095	     12.92289011	     -7.55856046	    -36.17658889	     -0.29870507	     -4.29830688	     -2.91898674	     -6.76633137	    -39.70244003	     25.45572837	     90.00000001	      0.00000000	      0.00000000	      9.11783148	     -6.34972070	    -30.60556633	     37.18482687	     90.00000001	      0.00000000	      0.00000000
      1.70000000	     15.33301771	      2.65225078	      5.83241103	     -0.36146131	      0.88622832	     -0.02532304	      8.99449247	     -1.74397959	    -25.17175548	     34.94247594	     -5.97998174	      0.60986125	     17.36108420	      2.72292534	     -7.55491232	    -17.70008518	     -2.28706400	    -16.77867631	     53.05466568	    -10.63977478	      0.92597860	      4.94248117	      7.22263435	     -7.55491232	    -36.39034941	     -0.12967902	     -4.21628797	     -2.57114244	     -7.05025508	    -37.89842462	     26.09476459	     90.00000001	      0.00000000	      0.00000000	      8.80244155	     -6.17145219	    -31.06077446	     36.87940435	     90.00000001	      0.00000000	      0.00000000
      1.71000000	     15.57471280	      2.60546762	      5.71189742	     -0.35288080	      0.88767764	     -0.02386513	      7.98742063	     -1.48685563	    -25.63206242	     34.66500808	     -6.16321958	      0.60501853	     18.06382390	      3.58073041	     -7.55183065	    -16.73656952	     -2.19356849	    -15.96879017	     54.83582248	    -10.47208240	      0.95706565	      5.06478932	      3.78404873	     -7.55183065	    -36.72152966	     -0.11311614	     -4.02351205	     -2.10463886	     -7.25383147	    -36.68359413	     26.66589047	     90.00000001	      0.00000000	      0.00000000	      8.50177825	     -6.04729010	    -31.22642465	     36.64895455	     90.00000001	      0.00000000	      0.00000000
      1.72000000	     15.82862303	      2.47985244	      5.55071727	     -0.34444191	      0.88915112	     -0.02226588	      6.92468097	     -1.09881021	    -25.68615882	     34.28808769	     -6.14586607	      0.59844002	     18.73571278	      3.97178482	     -7.55017046	    -15.71732031	     -2.22786985	    -15.42471110	     56.47719196	    -10.33822243	      0.98571295	      5.71017789	      1.03793375	     -7.55017046	    -37.06291814	     -0.06391299	     -3.73776233	     -1.54914106	     -7.43876376	    -35.83781486	     27.21665925	     90.00000001	      0.00000000	      0.00000000	      8.21730950	     -5.93486666	    -31.30137258	     36.43147397	     90.00000001	      0.00000000	      0.00000000
      1.73000000	     16.13466444	      2.54411536	      5.49972466	     -0.33630815	      0.89085665	     -0.02104293	      5.77965387	     -1.00021706	    -25.81739792	     33.92327925	     -6.03880136	      0.59207292	     19.06810184	      4.28421015	     -7.54743617	    -14.72218685	     -1.95120302	    -14.23732024	     57.95764879	     -9.89597114	      1.01155180	      5.72373838	     -2.80944374	     -7.54743617	    -37.51742309	     -0.11492298	     -3.66393059	     -1.04953356	     -7.66417704	    -34.23044913	     27.89098787	     90.00000001	      0.00000000	      0.00000000	      8.00029317	     -5.84001696	    -31.46110498	     36.18792657	     90.00000001	      0.00000000	      0.00000000
      1.74000000	     16.47869045	      2.71393309	      5.21974263	     -0.32815336	      0.89253358	     -0.01945507	      4.67857582	     -1.00386563	    -25.64000522	     33.73301068	     -5.92922682	      0.58875210	     19.32545910	      4.33267708	     -7.54684238	    -13.74469379	     -1.60054085	    -14.23137379	     59.12512946	    -10.11928821	      1.03192818	      6.59239575	     -3.67129924	     -7.54684238	    -38.00795241	     -0.41942485	     -3.42597193	     -0.33420802	     -7.76475553	    -33.91152742	     28.33809898	     90.00000001	      0.00000000	      0.00000000	      7.77698866	     -5.78380136	    -31.42401670	     36.05634542	     90.00000001	      0.00000000	      0.00000000
      1.75000000	     16.71420762	      2.55330534	      5.31868533	     -0.32040181	      0.89415927	     -0.01836388	      3.48652030	     -0.57542379	    -25.31431800	     33.06018592	     -5.54670860	      0.57700910	     19.72431418	      4.16893389	     -7.54393328	    -12.54657740	     -1.60986299	    -12.43498273	     60.41514046	     -9.07577163	      1.05444312	      6.64234766	     -8.32928335	     -7.54393328	    -38.38119793	     -0.19274495	     -3.32084935	      0.09825602	     -8.08618124	    -31.59437232	     29.20065383	     90.00000001	      0.00000000	      0.00000000	      7.61732252	     -5.67703846	    -31.55872523	     35.76901466	     90.00000001	      0.00000000	      0.00000000
      1.76000000	     16.99901870	      2.72139746	      5.05080507	     -0.31260336	      0.89573141	     -0.01686625	      2.46321395	     -0.58658377	    -25.08064148	     32.82764829	     -5.43566790	      0.57295055	     19.92790816	      4.21775450	     -7.54337752	    -11.41267006	     -1.23845633	    -12.30278928	     61.28697021	     -9.11614142	      1.06965942	      7.42451167	     -8.86933673	     -7.54337752	    -38.83068893	     -0.49338511	     -3.06584859	      0.85899551	     -8.18055479	    -31.27396096	     29.67866682	     90.00000001	      0.00000000	      0.00000000	      7.44250999	     -5.64800386	    -31.50702355	     35.65869328	     90.00000001	      0.00000000	      0.00000000
      1.77000000	     17.21379138	      2.71658567	      5.01715357	     -0.30490974	      0.89718722	     -0.01573261	      1.32954614	     -0.37017865	    -24.71030829	     32.22006580	     -5.07838821	      0.56234623	     20.42479435	      4.28165903	     -7.54268800	    -10.16765755	     -1.04687451	    -11.53672781	     62.03844741	     -8.80786416	      1.08277517	      8.57329020	    -10.33058947	     -7.54268800	    -39.16135238	     -0.51421700	     -2.93140984	      1.57957534	     -8.32153367	    -30.51261604	     30.29530562	     90.00000001	      0.00000000	      0.00000000	      7.29513757	     -5.55931145	    -31.45028761	     35.40867106	     90.00000001	      0.00000000	      0.00000000
      1.78000000	     17.45853204	      2.55799287	      5.06497479	     -0.29766673	      0.89875009	     -0.01446018	      0.18972902	      0.11768067	    -24.42855545	     31.50785269	     -4.86357157	      0.54991577	     20.51447541	      4.09235115	     -7.54101640	     -8.93644758	     -1.13290256	     -9.24767041	     62.79589280	     -7.04411172	      1.09599509	      8.31971343	    -13.06749275	     -7.54101640	    -39.58399128	     -0.36812994	     -2.70864372	      2.05481134	     -8.69297180	    -28.09303861	     31.21112882	     90.00000001	      0.00000000	      0.00000000	      7.26332623	     -5.48610498	    -31.48502276	     35.19323641	     90.00000001	      0.00000000	      0.00000000
      1.79000000	     17.59989872	      2.63113413	      4.95760699	     -0.29034113	      0.90000532	     -0.01326879	     -0.73647343	      0.20386351	    -24.20261223	     31.10821373	     -4.65453147	      0.54294075	     20.76937791	      4.09309858	     -7.53958023	     -7.59708730	     -0.81816027	     -8.09808497	     63.19222476	     -6.29223381	      1.10291238	      8.62474821	    -14.14567697	     -7.53958023	    -39.87394375	     -0.52933804	     -2.52947217	      2.70520423	     -8.92227492	    -26.72506937	     31.88322475	     90.00000001	      0.00000000	      0.00000000	      7.16067996	     -5.45151392	    -31.46462819	     35.06451452	     90.00000001	      0.00000000	      0.00000000
